<svg xmlns="http://www.w3.org/2000/svg" viewBox="0 0 64 64" width="64" height="64">
  <defs><clipPath id="ball"><circle cx="32.0" cy="32.0" r="30.0"/></clipPath></defs>
  <circle cx="32.0" cy="32.0" r="30.0" fill="#f8fafc" stroke="#0b1220" stroke-width="2.0"/>
  <g clip-path="url(#ball)" fill="#0b1220"><polygon points="32.00,23.00 40.56,29.22 37.29,39.28 26.71,39.28 23.44,29.22"/><polygon points="48.58,9.19 51.84,19.25 43.29,25.47 34.73,19.25 38.00,9.19"/><polygon points="58.82,40.71 50.26,46.93 41.70,40.71 44.97,30.65 55.55,30.65"/><polygon points="32.00,60.20 23.44,53.98 26.71,43.92 37.29,43.92 40.56,53.98"/><polygon points="5.18,40.71 8.45,30.65 19.03,30.65 22.30,40.71 13.74,46.93"/><polygon points="15.42,9.19 26.00,9.19 29.27,19.25 20.71,25.47 12.16,19.25"/></g>
  <g clip-path="url(#ball)" stroke="#0b1220" stroke-width="1.20" fill="none"><line x1="32.00" y1="23.00" x2="32.00" y2="2.00"/><line x1="40.56" y1="29.22" x2="60.53" y2="22.73"/><line x1="37.29" y1="39.28" x2="49.63" y2="56.27"/><line x1="26.71" y1="39.28" x2="14.37" y2="56.27"/><line x1="23.44" y1="29.22" x2="3.47" y2="22.73"/></g>
  <circle cx="32.0" cy="32.0" r="30.0" fill="none" stroke="#0b1220" stroke-width="2.0"/>
</svg>
